<svg height="2766" width="720" xmlns="http://www.w3.org/2000/svg">
<rect height="2766" fill="#555" width="720"></rect>
<text fill="#7f7" font-family="Courier New" font-size="12" xml:space="preserve">
<tspan x="10" y="26">33 megabytes installed</tspan>
<tspan x="10" y="42"></tspan>
<tspan x="10" y="58">node_modules</tspan>
<tspan x="10" y="74">└─┬ express-vue@3.9.11 </tspan>
<tspan x="10" y="90">  ├─┬ babel-core@6.24.1 </tspan>
<tspan x="10" y="106">  │ ├─┬ babel-code-frame@6.22.0 </tspan>
<tspan x="10" y="122">  │ │ ├─┬ chalk@1.1.3 </tspan>
<tspan x="10" y="138">  │ │ │ ├── ansi-styles@2.2.1 </tspan>
<tspan x="10" y="154">  │ │ │ ├── escape-string-regexp@1.0.5 </tspan>
<tspan x="10" y="170">  │ │ │ ├─┬ has-ansi@2.0.0 </tspan>
<tspan x="10" y="186">  │ │ │ │ └── ansi-regex@2.1.1 </tspan>
<tspan x="10" y="202">  │ │ │ ├── strip-ansi@3.0.1 </tspan>
<tspan x="10" y="218">  │ │ │ └── supports-color@2.0.0 </tspan>
<tspan x="10" y="234">  │ │ ├── esutils@2.0.2 </tspan>
<tspan x="10" y="250">  │ │ └── js-tokens@3.0.1 </tspan>
<tspan x="10" y="266">  │ ├─┬ babel-generator@6.24.1 </tspan>
<tspan x="10" y="282">  │ │ ├─┬ detect-indent@4.0.0 </tspan>
<tspan x="10" y="298">  │ │ │ └─┬ repeating@2.0.1 </tspan>
<tspan x="10" y="314">  │ │ │   └─┬ is-finite@1.0.2 </tspan>
<tspan x="10" y="330">  │ │ │     └── number-is-nan@1.0.1 </tspan>
<tspan x="10" y="346">  │ │ ├── jsesc@1.3.0 </tspan>
<tspan x="10" y="362">  │ │ └── trim-right@1.0.1 </tspan>
<tspan x="10" y="378">  │ ├── babel-helpers@6.24.1 </tspan>
<tspan x="10" y="394">  │ ├── babel-messages@6.23.0 </tspan>
<tspan x="10" y="410">  │ ├─┬ babel-register@6.24.1 </tspan>
<tspan x="10" y="426">  │ │ ├── core-js@2.4.1 </tspan>
<tspan x="10" y="442">  │ │ ├─┬ home-or-tmp@2.0.0 </tspan>
<tspan x="10" y="458">  │ │ │ ├── os-homedir@1.0.2 </tspan>
<tspan x="10" y="474">  │ │ │ └── os-tmpdir@1.0.2 </tspan>
<tspan x="10" y="490">  │ │ ├─┬ mkdirp@0.5.1 </tspan>
<tspan x="10" y="506">  │ │ │ └── minimist@0.0.8 </tspan>
<tspan x="10" y="522">  │ │ └── source-map-support@0.4.14 </tspan>
<tspan x="10" y="538">  │ ├─┬ babel-runtime@6.23.0 </tspan>
<tspan x="10" y="554">  │ │ └── regenerator-runtime@0.10.3 </tspan>
<tspan x="10" y="570">  │ ├── babel-template@6.24.1 </tspan>
<tspan x="10" y="586">  │ ├─┬ babel-traverse@6.24.1 </tspan>
<tspan x="10" y="602">  │ │ ├── globals@9.17.0 </tspan>
<tspan x="10" y="618">  │ │ └─┬ invariant@2.2.2 </tspan>
<tspan x="10" y="634">  │ │   └── loose-envify@1.3.1 </tspan>
<tspan x="10" y="650">  │ ├─┬ babel-types@6.24.1 </tspan>
<tspan x="10" y="666">  │ │ └── to-fast-properties@1.0.2 </tspan>
<tspan x="10" y="682">  │ ├── babylon@6.17.0 </tspan>
<tspan x="10" y="698">  │ ├── convert-source-map@1.5.0 </tspan>
<tspan x="10" y="714">  │ ├─┬ debug@2.6.4 </tspan>
<tspan x="10" y="730">  │ │ └── ms@0.7.3 </tspan>
<tspan x="10" y="746">  │ ├── json5@0.5.1 </tspan>
<tspan x="10" y="762">  │ ├── lodash@4.17.4 </tspan>
<tspan x="10" y="778">  │ ├─┬ minimatch@3.0.3 </tspan>
<tspan x="10" y="794">  │ │ └─┬ brace-expansion@1.1.7 </tspan>
<tspan x="10" y="810">  │ │   ├── balanced-match@0.4.2 </tspan>
<tspan x="10" y="826">  │ │   └── concat-map@0.0.1 </tspan>
<tspan x="10" y="842">  │ ├── path-is-absolute@1.0.1 </tspan>
<tspan x="10" y="858">  │ ├── private@0.1.7 </tspan>
<tspan x="10" y="874">  │ ├── slash@1.0.0 </tspan>
<tspan x="10" y="890">  │ └── source-map@0.5.6 </tspan>
<tspan x="10" y="906">  ├─┬ babel-preset-es2015@6.24.1 </tspan>
<tspan x="10" y="922">  │ ├── babel-plugin-check-es2015-constants@6.22.0 </tspan>
<tspan x="10" y="938">  │ ├── babel-plugin-transform-es2015-arrow-functions@6.22.0 </tspan>
<tspan x="10" y="954">  │ ├── babel-plugin-transform-es2015-block-scoped-functions@6.22.0 </tspan>
<tspan x="10" y="970">  │ ├── babel-plugin-transform-es2015-block-scoping@6.24.1 </tspan>
<tspan x="10" y="986">  │ ├─┬ babel-plugin-transform-es2015-classes@6.24.1 </tspan>
<tspan x="10" y="1002">  │ │ ├── babel-helper-define-map@6.24.1 </tspan>
<tspan x="10" y="1018">  │ │ ├── babel-helper-function-name@6.24.1 </tspan>
<tspan x="10" y="1034">  │ │ ├── babel-helper-optimise-call-expression@6.24.1 </tspan>
<tspan x="10" y="1050">  │ │ └── babel-helper-replace-supers@6.24.1 </tspan>
<tspan x="10" y="1066">  │ ├── babel-plugin-transform-es2015-computed-properties@6.24.1 </tspan>
<tspan x="10" y="1082">  │ ├── babel-plugin-transform-es2015-destructuring@6.23.0 </tspan>
<tspan x="10" y="1098">  │ ├── babel-plugin-transform-es2015-duplicate-keys@6.24.1 </tspan>
<tspan x="10" y="1114">  │ ├── babel-plugin-transform-es2015-for-of@6.23.0 </tspan>
<tspan x="10" y="1130">  │ ├── babel-plugin-transform-es2015-function-name@6.24.1 </tspan>
<tspan x="10" y="1146">  │ ├── babel-plugin-transform-es2015-literals@6.22.0 </tspan>
<tspan x="10" y="1162">  │ ├── babel-plugin-transform-es2015-modules-amd@6.24.1 </tspan>
<tspan x="10" y="1178">  │ ├─┬ babel-plugin-transform-es2015-modules-commonjs@6.24.1 </tspan>
<tspan x="10" y="1194">  │ │ └── babel-plugin-transform-strict-mode@6.24.1 </tspan>
<tspan x="10" y="1210">  │ ├─┬ babel-plugin-transform-es2015-modules-systemjs@6.24.1 </tspan>
<tspan x="10" y="1226">  │ │ └── babel-helper-hoist-variables@6.24.1 </tspan>
<tspan x="10" y="1242">  │ ├── babel-plugin-transform-es2015-modules-umd@6.24.1 </tspan>
<tspan x="10" y="1258">  │ ├── babel-plugin-transform-es2015-object-super@6.24.1 </tspan>
<tspan x="10" y="1274">  │ ├─┬ babel-plugin-transform-es2015-parameters@6.24.1 </tspan>
<tspan x="10" y="1290">  │ │ ├── babel-helper-call-delegate@6.24.1 </tspan>
<tspan x="10" y="1306">  │ │ └── babel-helper-get-function-arity@6.24.1 </tspan>
<tspan x="10" y="1322">  │ ├── babel-plugin-transform-es2015-shorthand-properties@6.24.1 </tspan>
<tspan x="10" y="1338">  │ ├── babel-plugin-transform-es2015-spread@6.22.0 </tspan>
<tspan x="10" y="1354">  │ ├─┬ babel-plugin-transform-es2015-sticky-regex@6.24.1 </tspan>
<tspan x="10" y="1370">  │ │ └── babel-helper-regex@6.24.1 </tspan>
<tspan x="10" y="1386">  │ ├── babel-plugin-transform-es2015-template-literals@6.22.0 </tspan>
<tspan x="10" y="1402">  │ ├── babel-plugin-transform-es2015-typeof-symbol@6.23.0 </tspan>
<tspan x="10" y="1418">  │ ├─┬ babel-plugin-transform-es2015-unicode-regex@6.24.1 </tspan>
<tspan x="10" y="1434">  │ │ └─┬ regexpu-core@2.0.0 </tspan>
<tspan x="10" y="1450">  │ │   ├── regenerate@1.3.2 </tspan>
<tspan x="10" y="1466">  │ │   ├── regjsgen@0.2.0 </tspan>
<tspan x="10" y="1482">  │ │   └─┬ regjsparser@0.1.5 </tspan>
<tspan x="10" y="1498">  │ │     └── jsesc@0.5.0 </tspan>
<tspan x="10" y="1514">  │ └─┬ babel-plugin-transform-regenerator@6.24.1 </tspan>
<tspan x="10" y="1530">  │   └── regenerator-transform@0.9.11 </tspan>
<tspan x="10" y="1546">  ├─┬ html-minifier@3.4.3 </tspan>
<tspan x="10" y="1562">  │ ├─┬ camel-case@3.0.0 </tspan>
<tspan x="10" y="1578">  │ │ └── upper-case@1.1.3 </tspan>
<tspan x="10" y="1594">  │ ├── clean-css@4.0.12 </tspan>
<tspan x="10" y="1610">  │ ├─┬ commander@2.9.0 </tspan>
<tspan x="10" y="1626">  │ │ └── graceful-readlink@1.0.1 </tspan>
<tspan x="10" y="1642">  │ ├── he@1.1.1 </tspan>
<tspan x="10" y="1658">  │ ├─┬ ncname@1.0.0 </tspan>
<tspan x="10" y="1674">  │ │ └── xml-char-classes@1.0.0 </tspan>
<tspan x="10" y="1690">  │ ├── relateurl@0.2.7 </tspan>
<tspan x="10" y="1706">  │ └─┬ uglify-js@2.8.22 </tspan>
<tspan x="10" y="1722">  │   ├── uglify-to-browserify@1.0.2 </tspan>
<tspan x="10" y="1738">  │   └─┬ yargs@3.10.0 </tspan>
<tspan x="10" y="1754">  │     ├── camelcase@1.2.1 </tspan>
<tspan x="10" y="1770">  │     ├─┬ cliui@2.1.0 </tspan>
<tspan x="10" y="1786">  │     │ ├─┬ center-align@0.1.3 </tspan>
<tspan x="10" y="1802">  │     │ │ ├─┬ align-text@0.1.4 </tspan>
<tspan x="10" y="1818">  │     │ │ │ ├─┬ kind-of@3.1.0 </tspan>
<tspan x="10" y="1834">  │     │ │ │ │ └── is-buffer@1.1.5 </tspan>
<tspan x="10" y="1850">  │     │ │ │ ├── longest@1.0.1 </tspan>
<tspan x="10" y="1866">  │     │ │ │ └── repeat-string@1.6.1 </tspan>
<tspan x="10" y="1882">  │     │ │ └── lazy-cache@1.0.4 </tspan>
<tspan x="10" y="1898">  │     │ ├── right-align@0.1.3 </tspan>
<tspan x="10" y="1914">  │     │ └── wordwrap@0.0.2 </tspan>
<tspan x="10" y="1930">  │     ├── decamelize@1.2.0 </tspan>
<tspan x="10" y="1946">  │     └── window-size@0.1.0 </tspan>
<tspan x="10" y="1962">  ├─┬ param-case@2.1.1 </tspan>
<tspan x="10" y="1978">  │ └─┬ no-case@2.3.1 </tspan>
<tspan x="10" y="1994">  │   └── lower-case@1.1.4 </tspan>
<tspan x="10" y="2010">  ├─┬ pug@2.0.0-beta9 </tspan>
<tspan x="10" y="2026">  │ ├─┬ pug-code-gen@1.1.1 </tspan>
<tspan x="10" y="2042">  │ │ ├─┬ constantinople@3.1.0 </tspan>
<tspan x="10" y="2058">  │ │ │ ├── acorn@3.3.0 </tspan>
<tspan x="10" y="2074">  │ │ │ └── is-expression@2.1.0 </tspan>
<tspan x="10" y="2090">  │ │ ├── doctypes@1.1.0 </tspan>
<tspan x="10" y="2106">  │ │ ├── js-stringify@1.0.2 </tspan>
<tspan x="10" y="2122">  │ │ ├── pug-attrs@2.0.2 </tspan>
<tspan x="10" y="2138">  │ │ ├── pug-error@1.3.2 </tspan>
<tspan x="10" y="2154">  │ │ ├── void-elements@2.0.1 </tspan>
<tspan x="10" y="2170">  │ │ └─┬ with@5.1.1 </tspan>
<tspan x="10" y="2186">  │ │   └─┬ acorn-globals@3.1.0 </tspan>
<tspan x="10" y="2202">  │ │     └── acorn@4.0.11 </tspan>
<tspan x="10" y="2218">  │ ├─┬ pug-filters@2.1.2 </tspan>
<tspan x="10" y="2234">  │ │ ├─┬ clean-css@3.4.25 </tspan>
<tspan x="10" y="2250">  │ │ │ ├── commander@2.8.1 </tspan>
<tspan x="10" y="2266">  │ │ │ └─┬ source-map@0.4.4 </tspan>
<tspan x="10" y="2282">  │ │ │   └── amdefine@1.0.1 </tspan>
<tspan x="10" y="2298">  │ │ ├─┬ jstransformer@1.0.0 </tspan>
<tspan x="10" y="2314">  │ │ │ ├── is-promise@2.1.0 </tspan>
<tspan x="10" y="2330">  │ │ │ └─┬ promise@7.1.1 </tspan>
<tspan x="10" y="2346">  │ │ │   └── asap@2.0.5 </tspan>
<tspan x="10" y="2362">  │ │ └── pug-walk@1.1.2 </tspan>
<tspan x="10" y="2378">  │ ├─┬ pug-lexer@2.3.2 </tspan>
<tspan x="10" y="2394">  │ │ ├─┬ character-parser@2.2.0 </tspan>
<tspan x="10" y="2410">  │ │ │ └─┬ is-regex@1.0.4 </tspan>
<tspan x="10" y="2426">  │ │ │   └─┬ has@1.0.1 </tspan>
<tspan x="10" y="2442">  │ │ │     └── function-bind@1.1.0 </tspan>
<tspan x="10" y="2458">  │ │ └─┬ is-expression@3.0.0 </tspan>
<tspan x="10" y="2474">  │ │   └── acorn@4.0.11 </tspan>
<tspan x="10" y="2490">  │ ├── pug-linker@2.0.3 </tspan>
<tspan x="10" y="2506">  │ ├─┬ pug-load@2.0.6 </tspan>
<tspan x="10" y="2522">  │ │ └── object-assign@4.1.1 </tspan>
<tspan x="10" y="2538">  │ ├─┬ pug-parser@2.0.2 </tspan>
<tspan x="10" y="2554">  │ │ └── token-stream@0.0.1 </tspan>
<tspan x="10" y="2570">  │ ├── pug-runtime@2.0.3 </tspan>
<tspan x="10" y="2586">  │ └── pug-strip-comments@1.0.2 </tspan>
<tspan x="10" y="2602">  ├── require-from-string@1.2.1 </tspan>
<tspan x="10" y="2618">  ├── vue@2.2.6 </tspan>
<tspan x="10" y="2634">  ├─┬ vue-server-renderer@2.2.6 </tspan>
<tspan x="10" y="2650">  │ ├── de-indent@1.0.2 </tspan>
<tspan x="10" y="2666">  │ ├─┬ resolve@1.3.3 </tspan>
<tspan x="10" y="2682">  │ │ └── path-parse@1.0.5 </tspan>
<tspan x="10" y="2698">  │ └─┬ vue-ssr-html-stream@2.2.0 </tspan>
<tspan x="10" y="2714">  │   └── serialize-javascript@1.3.0 </tspan>
<tspan x="10" y="2730">  └─┬ xss@0.3.3 </tspan>
<tspan x="10" y="2746">    └── cssfilter@0.0.9</tspan>
</text>
</svg>
